<?xml version="1.0" encoding="UTF-8" standalone="no"?>
<svg width="20px" height="16px" viewBox="0 0 20 16" version="1.1" xmlns="http://www.w3.org/2000/svg" xmlns:xlink="http://www.w3.org/1999/xlink">
    <!-- Generator: Sketch 39.1 (31720) - http://www.bohemiancoding.com/sketch -->
    <title>Shape</title>
    <desc>Created with Sketch.</desc>
    <defs></defs>
    <g id="Page-1" stroke="none" stroke-width="1" fill="none" fill-rule="evenodd">
        <g id="icon&amp;loading" transform="translate(-119.000000, -62.000000)" fill="#6C6C6C">
            <path d="M135.117371,74.6679202 C134.228592,74.6679202 133.509818,75.3891941 133.509818,76.2767236 C133.509818,77.1655031 134.228592,77.8842769 135.117371,77.8842769 C136.007401,77.8842769 136.727425,77.1655031 136.727425,76.2767236 C136.727425,75.3891941 136.006151,74.6679202 135.117371,74.6679202 L135.117371,74.6679202 Z M127.073354,74.6679202 C126.184575,74.6679202 125.464551,75.3891941 125.464551,76.2767236 C125.464551,77.1655031 126.184575,77.8842769 127.073354,77.8842769 C127.960884,77.8842769 128.682158,77.1655031 128.682158,76.2767236 C128.682158,75.3891941 127.960884,74.6679202 127.073354,74.6679202 L127.073354,74.6679202 Z M124.263261,64.1463212 L122.11944,62 L119.643108,62 C118.741828,62 118.830581,63.6100534 119.643108,63.6100534 L121.584422,63.6100534 L123.193226,65.2176067 L126.002069,73.5941346 L136.728675,73.5941346 L139,64.1463212 L124.263261,64.1463212 L124.263261,64.1463212 Z" id="Shape"></path>
        </g>
    </g>
</svg>