<?xml version="1.0" encoding="UTF-8"?>
<svg width="20px" height="18px" viewBox="0 0 20 18" version="1.1" xmlns="http://www.w3.org/2000/svg" xmlns:xlink="http://www.w3.org/1999/xlink">
    <!-- Generator: Sketch 41 (35326) - http://www.bohemiancoding.com/sketch -->
    <title>喇叭</title>
    <desc>Created with Sketch.</desc>
    <defs></defs>
    <g id="Page-1" stroke="none" stroke-width="1" fill="none" fill-rule="evenodd">
        <g id="喇叭" fill="#FFFFFF">
            <path d="M11.0148244,0.0977120134 L11.0148702,0.0977120134 C10.7806773,0.0977120134 10.5464157,0.175799195 10.3122686,0.331859128 L4.37935908,4.31318412 L4.37814577,4.31318412 L4.37814577,12.9003256 L4.37935908,12.9003256 L10.3122687,16.8816048 C10.7025672,17.1157748 11.2490402,17.1157748 11.2490402,17.1157748 C11.9515732,17.1157748 12.4981148,16.5692332 12.4981148,15.8667232 L12.4981148,1.26867649 C12.4980919,-0.0584165996 11.0148244,0.0977120134 11.0148244,0.0977120134 Z" id="Shape"></path>
            <path d="M17.8907553,1.97814588 L18.7631753,1.08436689 C18.9812975,0.860910694 18.9760551,0.419423893 18.7525989,0.201278814 C18.4732615,-0.071373915 18.0876101,-0.0114864653 17.8694651,0.211969732 L16.9969763,1.10574872 C16.7789457,1.32915913 16.7842111,1.77062304 17.0077359,1.9888368 C17.2870275,2.26151242 17.6726331,2.20167076 17.8907553,1.97814588 Z" id="Shape"></path>
            <path d="M0.00775836689,5.56221289 L0.00775836689,11.6512282 C0.00775836689,12.353784 0.55418557,12.9003256 1.25678714,12.9003256 L2.99363765,12.9003256 L2.99363765,4.31318412 L1.25678714,4.31318412 C0.55418557,4.31318412 0.00775836689,4.85958841 0.00775836689,5.56221289 Z" id="Shape"></path>
            <path d="M14.0592634,5.56221289 C13.9812907,5.48419436 13.8251392,5.48419436 13.7470749,5.48419436 C13.4347948,5.48419436 13.1226292,5.71836436 13.1226292,6.10861718 C13.1226292,6.42089727 13.4349093,6.73313157 13.7470749,6.73313157 C14.4496765,6.88928306 14.9960808,7.51382034 14.9960808,8.21637613 C14.9960808,8.91897772 14.4496994,9.54351499 13.7470749,9.69964358 C13.4347948,9.69964358 13.1226292,9.93381358 13.1226292,10.3241809 C13.1226292,10.6364609 13.4349093,10.9486037 13.7470749,10.9486037 C13.8251392,10.9486037 13.9811991,10.8705851 14.0592634,10.8705851 C15.3083609,10.5583279 16.2451095,9.54337761 16.2451095,8.21635322 C16.2451324,6.96730159 15.3083609,5.87449298 14.0592634,5.56221289 Z" id="Shape"></path>
            <path d="M17.8907553,15.035533 C17.6726331,14.812031 17.2870275,14.7521893 17.0077359,15.0248192 C16.784211,15.24301 16.7789457,15.6844968 16.9969763,15.9079072 L17.869465,16.8016862 C18.0876101,17.0251424 18.4732615,17.0850528 18.7525989,16.8123772 C18.9760551,16.594255 18.9812975,16.1527682 18.7631753,15.929312 L17.8907553,15.035533 Z" id="Shape"></path>
            <path d="M19.3676815,7.90421051 L18.1186298,7.90421051 C17.8063497,7.90421051 17.494207,8.13833472 17.494207,8.52863333 C17.494207,8.84095919 17.8064871,9.15312483 18.1186298,9.15312483 L19.3676815,9.15312483 C19.6799387,9.15312483 19.9921958,8.91897772 19.9921958,8.52863333 C19.9921959,8.21637615 19.6799387,7.90421051 19.3676815,7.90421051 Z" id="Shape"></path>
        </g>
    </g>
</svg>